<svg width="37" height="37" viewBox="0 0 37 37" fill="none" xmlns="http://www.w3.org/2000/svg">
<g filter="url(#filter0_d)">
<path d="M23.76 5.29151C24.1688 4.58355 25.0793 4.33524 25.7435 4.81173C28.0084 6.4364 29.7843 8.66667 30.8584 11.2598C32.122 14.3105 32.3437 17.6929 31.4891 20.8824C30.6344 24.0719 28.7513 26.8903 26.1316 28.9005C23.5119 30.9106 20.3021 32.0002 17.0001 32.0002C13.6981 32.0002 10.4883 30.9106 7.86862 28.9005C5.24894 26.8903 3.36575 24.0719 2.51112 20.8824C1.65649 17.6929 1.87819 14.3105 3.14182 11.2598C4.21593 8.66667 5.99184 6.4364 8.25668 4.81174C8.92093 4.33524 9.8314 4.58355 10.2401 5.29151C10.6489 5.99947 10.3995 6.89785 9.74699 7.39033C8.04131 8.6777 6.70143 10.402 5.87685 12.3927C4.86261 14.8413 4.68467 17.5562 5.37063 20.1162C6.05659 22.6762 7.56812 24.9384 9.67079 26.5518C11.7735 28.1653 14.3497 29.0398 17.0001 29.0398C19.6505 29.0398 22.2267 28.1653 24.3294 26.5518C26.4321 24.9384 27.9436 22.6762 28.6296 20.1162C29.3155 17.5561 29.1376 14.8413 28.1233 12.3927C27.2988 10.402 25.9589 8.6777 24.2532 7.39032C23.6007 6.89785 23.3513 5.99947 23.76 5.29151Z" fill="white"/>
</g>
<g filter="url(#filter1_d)">
<path fill-rule="evenodd" clip-rule="evenodd" d="M17.0001 23.0938C20.3656 23.0938 23.0939 20.3655 23.0939 17C23.0939 13.6345 20.3656 10.9062 17.0001 10.9062C13.6346 10.9062 10.9063 13.6345 10.9063 17C10.9063 20.3655 13.6346 23.0938 17.0001 23.0938ZM18.3966 17.2539C18.8572 17.2539 19.2657 17.031 19.5201 16.687C19.5327 16.7896 19.5392 16.8941 19.5392 17C19.5392 18.4023 18.4024 19.5391 17.0001 19.5391C15.5978 19.5391 14.461 18.4023 14.461 17C14.461 15.5977 15.5978 14.461 17.0001 14.461C17.2818 14.461 17.5529 14.5068 17.8061 14.5916C17.33 14.814 17.0001 15.2972 17.0001 15.8574C17.0001 16.6287 17.6253 17.2539 18.3966 17.2539Z" fill="white"/>
</g>
<g filter="url(#filter2_d)">
<path d="M18.8751 3.87501C18.8751 4.91055 18.0356 5.75002 17.0001 5.75002C15.9645 5.75002 15.1251 4.91055 15.1251 3.87501C15.1251 2.83947 15.9645 2 17.0001 2C18.0356 2 18.8751 2.83947 18.8751 3.87501Z" fill="white"/>
</g>
<defs>
<filter id="filter0_d" x="0.5" y="3.06641" width="36.0002" height="33.4338" filterUnits="userSpaceOnUse" color-interpolation-filters="sRGB">
<feFlood flood-opacity="0" result="BackgroundImageFix"/>
<feColorMatrix in="SourceAlpha" type="matrix" values="0 0 0 0 0 0 0 0 0 0 0 0 0 0 0 0 0 0 127 0" result="hardAlpha"/>
<feOffset dx="1.5" dy="1.5"/>
<feGaussianBlur stdDeviation="1.5"/>
<feComposite in2="hardAlpha" operator="out"/>
<feColorMatrix type="matrix" values="0 0 0 0 0 0 0 0 0 0 0 0 0 0 0 0 0 0 0.08 0"/>
<feBlend mode="normal" in2="BackgroundImageFix" result="effect1_dropShadow"/>
<feBlend mode="normal" in="SourceGraphic" in2="effect1_dropShadow" result="shape"/>
</filter>
<filter id="filter1_d" x="9.40631" y="9.40625" width="18.1876" height="18.1876" filterUnits="userSpaceOnUse" color-interpolation-filters="sRGB">
<feFlood flood-opacity="0" result="BackgroundImageFix"/>
<feColorMatrix in="SourceAlpha" type="matrix" values="0 0 0 0 0 0 0 0 0 0 0 0 0 0 0 0 0 0 127 0" result="hardAlpha"/>
<feOffset dx="1.5" dy="1.5"/>
<feGaussianBlur stdDeviation="1.5"/>
<feComposite in2="hardAlpha" operator="out"/>
<feColorMatrix type="matrix" values="0 0 0 0 0 0 0 0 0 0 0 0 0 0 0 0 0 0 0.08 0"/>
<feBlend mode="normal" in2="BackgroundImageFix" result="effect1_dropShadow"/>
<feBlend mode="normal" in="SourceGraphic" in2="effect1_dropShadow" result="shape"/>
</filter>
<filter id="filter2_d" x="13.6251" y="0.5" width="9.75002" height="9.75002" filterUnits="userSpaceOnUse" color-interpolation-filters="sRGB">
<feFlood flood-opacity="0" result="BackgroundImageFix"/>
<feColorMatrix in="SourceAlpha" type="matrix" values="0 0 0 0 0 0 0 0 0 0 0 0 0 0 0 0 0 0 127 0" result="hardAlpha"/>
<feOffset dx="1.5" dy="1.5"/>
<feGaussianBlur stdDeviation="1.5"/>
<feComposite in2="hardAlpha" operator="out"/>
<feColorMatrix type="matrix" values="0 0 0 0 0 0 0 0 0 0 0 0 0 0 0 0 0 0 0.08 0"/>
<feBlend mode="normal" in2="BackgroundImageFix" result="effect1_dropShadow"/>
<feBlend mode="normal" in="SourceGraphic" in2="effect1_dropShadow" result="shape"/>
</filter>
</defs>
</svg>
